<svg xmlns="http://www.w3.org/2000/svg" width="1900" height="1000" viewBox="0 0 1900 1000" font-family="Inter, 'Helvetica Neue', Arial, sans-serif">
<defs>
  <linearGradient id="g_hw" x1="0" y1="0" x2="0.65" y2="1"><stop offset="0" stop-color="#16263F"/><stop offset="1" stop-color="#0E1A2C"/></linearGradient><linearGradient id="g_iface" x1="0" y1="0" x2="0.65" y2="1"><stop offset="0" stop-color="#352712"/><stop offset="1" stop-color="#22190A"/></linearGradient><linearGradient id="g_percep" x1="0" y1="0" x2="0.65" y2="1"><stop offset="0" stop-color="#103627"/><stop offset="1" stop-color="#0A2418"/></linearGradient><linearGradient id="g_state" x1="0" y1="0" x2="0.65" y2="1"><stop offset="0" stop-color="#0E3437"/><stop offset="1" stop-color="#0A2527"/></linearGradient><linearGradient id="g_behav" x1="0" y1="0" x2="0.65" y2="1"><stop offset="0" stop-color="#3C1B18"/><stop offset="1" stop-color="#2A1310"/></linearGradient><linearGradient id="g_ctrl" x1="0" y1="0" x2="0.65" y2="1"><stop offset="0" stop-color="#311639"/><stop offset="1" stop-color="#23102A"/></linearGradient><linearGradient id="g_flight" x1="0" y1="0" x2="0.65" y2="1"><stop offset="0" stop-color="#332810"/><stop offset="1" stop-color="#241B0A"/></linearGradient>
  <marker id="ar" viewBox="0 0 10 10" refX="8.5" refY="5" markerWidth="7.5" markerHeight="7.5" orient="auto-start-reverse"><path d="M 0 0.7 L 9 5 L 0 9.3 L 2.6 5 Z" fill="#9AA7BC"/></marker><marker id="ar_hw" viewBox="0 0 10 10" refX="8.5" refY="5" markerWidth="7.5" markerHeight="7.5" orient="auto-start-reverse"><path d="M 0 0.7 L 9 5 L 0 9.3 L 2.6 5 Z" fill="#6E7B90"/></marker><marker id="ar_safe" viewBox="0 0 10 10" refX="8.5" refY="5" markerWidth="7.5" markerHeight="7.5" orient="auto-start-reverse"><path d="M 0 0.7 L 9 5 L 0 9.3 L 2.6 5 Z" fill="#E8A24C"/></marker>
  <radialGradient id="vign" cx="0.5" cy="0.36" r="0.95">
    <stop offset="0" stop-color="#10151F"/>
    <stop offset="0.55" stop-color="#0B0E15"/>
    <stop offset="1" stop-color="#080A0F"/>
  </radialGradient>
  <pattern id="grid" width="34" height="34" patternUnits="userSpaceOnUse">
    <circle cx="1" cy="1" r="1" fill="rgba(150,180,230,0.035)"/>
  </pattern>
  <filter id="cardshadow" x="-30%" y="-30%" width="160%" height="170%">
    <feDropShadow dx="0" dy="6" stdDeviation="9" flood-color="#000000" flood-opacity="0.45"/>
  </filter>
</defs>
<rect width="1900" height="1000" fill="url(#vign)"/>
<rect width="1900" height="1000" fill="url(#grid)"/>
<rect x="56" y="26" width="62.2" height="19" rx="5" fill="#0E1219" stroke="rgba(255,255,255,0.12)"/>
<text x="65.0" y="39.5" font-family="'JetBrains Mono', ui-monospace, 'SF Mono', Menlo, monospace" font-size="10.5" font-weight="500" fill="#8FB7FF" text-anchor="start" letter-spacing="0.5" opacity="1">FIG. 01</text>
<text x="1844.0" y="39.5" font-family="'JetBrains Mono', ui-monospace, 'SF Mono', Menlo, monospace" font-size="11" font-weight="400" fill="#5E6B7E" text-anchor="end" letter-spacing="0.3" opacity="1">ROS 2  •  System Overview</text>
<text x="56.0" y="74.0" font-family="Inter, 'Helvetica Neue', Arial, sans-serif" font-size="27" font-weight="700" fill="#EEF2F8" text-anchor="start" letter-spacing="-0.2" opacity="1">UAV Vision-Follow System</text>
<text x="56.0" y="97.0" font-family="Inter, 'Helvetica Neue', Arial, sans-serif" font-size="13.5" font-weight="400" fill="#9AA6B8" text-anchor="start" letter-spacing="0" opacity="1">Vision-based autonomous person-following drone  ·  layered system architecture</text>
<line x1="56" y1="114" x2="1844" y2="114" stroke="rgba(255,255,255,0.07)" stroke-width="1"/>
<rect x="56.0" y="150.0" width="250.0" height="662.0" rx="17" fill="rgba(255,255,255,0.018)" stroke="rgba(255,255,255,0.07)" stroke-width="1"/><rect x="56.0" y="150.0" width="250.0" height="3" rx="1.5" fill="#5B9CFF" opacity="0.5"/><rect x="72.0" y="136.0" width="170.1" height="27" rx="8" fill="#0E1219" stroke="#5B9CFF" stroke-opacity="0.42" stroke-width="1"/><circle cx="87.0" cy="149.5" r="3.6" fill="#5B9CFF"/><text x="98.0" y="153.5" font-family="Inter, 'Helvetica Neue', Arial, sans-serif" font-size="11.5" font-weight="600" fill="#EEF2F8" letter-spacing="1.3">SENSORS / HARDWARE</text>
<rect x="363.0" y="150.0" width="250.0" height="662.0" rx="17" fill="rgba(255,255,255,0.018)" stroke="rgba(255,255,255,0.07)" stroke-width="1"/><rect x="363.0" y="150.0" width="250.0" height="3" rx="1.5" fill="#E8A24C" opacity="0.5"/><rect x="379.0" y="136.0" width="162.7" height="27" rx="8" fill="#0E1219" stroke="#E8A24C" stroke-opacity="0.42" stroke-width="1"/><circle cx="394.0" cy="149.5" r="3.6" fill="#E8A24C"/><text x="405.0" y="153.5" font-family="Inter, 'Helvetica Neue', Arial, sans-serif" font-size="11.5" font-weight="600" fill="#EEF2F8" letter-spacing="1.3">VEHICLE INTERFACE</text>
<rect x="670.0" y="150.0" width="250.0" height="662.0" rx="17" fill="rgba(255,255,255,0.018)" stroke="rgba(255,255,255,0.07)" stroke-width="1"/><rect x="670.0" y="150.0" width="250.0" height="3" rx="1.5" fill="#37CB8C" opacity="0.5"/><rect x="686.0" y="136.0" width="110.5" height="27" rx="8" fill="#0E1219" stroke="#37CB8C" stroke-opacity="0.42" stroke-width="1"/><circle cx="701.0" cy="149.5" r="3.6" fill="#37CB8C"/><text x="712.0" y="153.5" font-family="Inter, 'Helvetica Neue', Arial, sans-serif" font-size="11.5" font-weight="600" fill="#EEF2F8" letter-spacing="1.3">PERCEPTION</text>
<rect x="977.0" y="150.0" width="250.0" height="662.0" rx="17" fill="rgba(255,255,255,0.018)" stroke="rgba(255,255,255,0.07)" stroke-width="1"/><rect x="977.0" y="150.0" width="250.0" height="3" rx="1.5" fill="#F2745F" opacity="0.5"/><rect x="993.0" y="136.0" width="162.7" height="27" rx="8" fill="#0E1219" stroke="#F2745F" stroke-opacity="0.42" stroke-width="1"/><circle cx="1008.0" cy="149.5" r="3.6" fill="#F2745F"/><text x="1019.0" y="153.5" font-family="Inter, 'Helvetica Neue', Arial, sans-serif" font-size="11.5" font-weight="600" fill="#EEF2F8" letter-spacing="1.3">STATE / BEHAVIOUR</text>
<rect x="1284.0" y="150.0" width="250.0" height="662.0" rx="17" fill="rgba(255,255,255,0.018)" stroke="rgba(255,255,255,0.07)" stroke-width="1"/><rect x="1284.0" y="150.0" width="250.0" height="3" rx="1.5" fill="#D277B9" opacity="0.5"/><rect x="1300.0" y="136.0" width="155.2" height="27" rx="8" fill="#0E1219" stroke="#D277B9" stroke-opacity="0.42" stroke-width="1"/><circle cx="1315.0" cy="149.5" r="3.6" fill="#D277B9"/><text x="1326.0" y="153.5" font-family="Inter, 'Helvetica Neue', Arial, sans-serif" font-size="11.5" font-weight="600" fill="#EEF2F8" letter-spacing="1.3">CONTROL / SAFETY</text>
<rect x="1591.0" y="150.0" width="250.0" height="662.0" rx="17" fill="rgba(255,255,255,0.018)" stroke="rgba(255,255,255,0.07)" stroke-width="1"/><rect x="1591.0" y="150.0" width="250.0" height="3" rx="1.5" fill="#E7BB42" opacity="0.5"/><rect x="1607.0" y="136.0" width="162.7" height="27" rx="8" fill="#0E1219" stroke="#E7BB42" stroke-opacity="0.42" stroke-width="1"/><circle cx="1622.0" cy="149.5" r="3.6" fill="#E7BB42"/><text x="1633.0" y="153.5" font-family="Inter, 'Helvetica Neue', Arial, sans-serif" font-size="11.5" font-weight="600" fill="#EEF2F8" letter-spacing="1.3">FLIGHT CONTROLLER</text>
<g filter="url(#cardshadow)"><rect x="82.0" y="205.0" width="198.0" height="58.0" rx="13" fill="url(#g_hw)" stroke="#5B9CFF" stroke-opacity="0.55" stroke-width="1.1"/></g><rect x="83.0" y="206.0" width="196.0" height="56.0" rx="12" fill="none" stroke="#FFFFFF" stroke-opacity="0.06" stroke-width="1"/><rect x="87.0" y="215.0" width="3.4" height="38.0" rx="1.7" fill="#5B9CFF"/><text x="100.0" y="230.0" font-family="Inter, 'Helvetica Neue', Arial, sans-serif" font-size="15.5" font-weight="600" fill="#EEF2F8" letter-spacing="0.1">Pi Camera</text><text x="100.0" y="248.0" font-family="'JetBrains Mono', ui-monospace, 'SF Mono', Menlo, monospace" font-size="10.5" fill="#9AA6B8" letter-spacing="0.2">CSI-2 / 1080p</text>
<g filter="url(#cardshadow)"><rect x="82.0" y="460.0" width="198.0" height="58.0" rx="13" fill="url(#g_hw)" stroke="#5B9CFF" stroke-opacity="0.55" stroke-width="1.1"/></g><rect x="83.0" y="461.0" width="196.0" height="56.0" rx="12" fill="none" stroke="#FFFFFF" stroke-opacity="0.06" stroke-width="1"/><rect x="87.0" y="470.0" width="3.4" height="38.0" rx="1.7" fill="#5B9CFF"/><text x="100.0" y="485.0" font-family="Inter, 'Helvetica Neue', Arial, sans-serif" font-size="15.5" font-weight="600" fill="#EEF2F8" letter-spacing="0.1">Optical Flow</text><text x="100.0" y="503.0" font-family="'JetBrains Mono', ui-monospace, 'SF Mono', Menlo, monospace" font-size="10.5" fill="#9AA6B8" letter-spacing="0.2">PMW3901</text>
<g filter="url(#cardshadow)"><rect x="82.0" y="715.0" width="198.0" height="58.0" rx="13" fill="url(#g_hw)" stroke="#5B9CFF" stroke-opacity="0.55" stroke-width="1.1"/></g><rect x="83.0" y="716.0" width="196.0" height="56.0" rx="12" fill="none" stroke="#FFFFFF" stroke-opacity="0.06" stroke-width="1"/><rect x="87.0" y="725.0" width="3.4" height="38.0" rx="1.7" fill="#5B9CFF"/><text x="100.0" y="740.0" font-family="Inter, 'Helvetica Neue', Arial, sans-serif" font-size="15.5" font-weight="600" fill="#EEF2F8" letter-spacing="0.1">Downward Lidar</text><text x="100.0" y="758.0" font-family="'JetBrains Mono', ui-monospace, 'SF Mono', Menlo, monospace" font-size="10.5" fill="#9AA6B8" letter-spacing="0.2">range / AGL</text>
<g filter="url(#cardshadow)"><rect x="389.0" y="205.0" width="198.0" height="58.0" rx="13" fill="url(#g_iface)" stroke="#E8A24C" stroke-opacity="0.55" stroke-width="1.1"/></g><rect x="390.0" y="206.0" width="196.0" height="56.0" rx="12" fill="none" stroke="#FFFFFF" stroke-opacity="0.06" stroke-width="1"/><rect x="394.0" y="215.0" width="3.4" height="38.0" rx="1.7" fill="#E8A24C"/><text x="407.0" y="230.0" font-family="Inter, 'Helvetica Neue', Arial, sans-serif" font-size="15.5" font-weight="600" fill="#EEF2F8" letter-spacing="0.1">Camera Driver</text><text x="407.0" y="248.0" font-family="'JetBrains Mono', ui-monospace, 'SF Mono', Menlo, monospace" font-size="10.5" fill="#9AA6B8" letter-spacing="0.2">image acquisition</text>
<g filter="url(#cardshadow)"><rect x="389.0" y="715.0" width="198.0" height="58.0" rx="13" fill="url(#g_iface)" stroke="#E8A24C" stroke-opacity="0.55" stroke-width="1.1"/></g><rect x="390.0" y="716.0" width="196.0" height="56.0" rx="12" fill="none" stroke="#FFFFFF" stroke-opacity="0.06" stroke-width="1"/><rect x="394.0" y="725.0" width="3.4" height="38.0" rx="1.7" fill="#E8A24C"/><text x="407.0" y="740.0" font-family="Inter, 'Helvetica Neue', Arial, sans-serif" font-size="15.5" font-weight="600" fill="#EEF2F8" letter-spacing="0.1">FCU Bridge</text><text x="407.0" y="758.0" font-family="'JetBrains Mono', ui-monospace, 'SF Mono', Menlo, monospace" font-size="10.5" fill="#9AA6B8" letter-spacing="0.2">MAVLink / ROS 2</text>
<g filter="url(#cardshadow)"><rect x="696.0" y="205.0" width="198.0" height="58.0" rx="13" fill="url(#g_percep)" stroke="#37CB8C" stroke-opacity="0.55" stroke-width="1.1"/></g><rect x="697.0" y="206.0" width="196.0" height="56.0" rx="12" fill="none" stroke="#FFFFFF" stroke-opacity="0.06" stroke-width="1"/><rect x="701.0" y="215.0" width="3.4" height="38.0" rx="1.7" fill="#37CB8C"/><text x="714.0" y="230.0" font-family="Inter, 'Helvetica Neue', Arial, sans-serif" font-size="15.5" font-weight="600" fill="#EEF2F8" letter-spacing="0.1">Image Preprocess</text><text x="714.0" y="248.0" font-family="'JetBrains Mono', ui-monospace, 'SF Mono', Menlo, monospace" font-size="10.5" fill="#9AA6B8" letter-spacing="0.2">resize / undistort</text>
<g filter="url(#cardshadow)"><rect x="696.0" y="375.0" width="198.0" height="58.0" rx="13" fill="url(#g_percep)" stroke="#37CB8C" stroke-opacity="0.55" stroke-width="1.1"/></g><rect x="697.0" y="376.0" width="196.0" height="56.0" rx="12" fill="none" stroke="#FFFFFF" stroke-opacity="0.06" stroke-width="1"/><rect x="701.0" y="385.0" width="3.4" height="38.0" rx="1.7" fill="#37CB8C"/><text x="714.0" y="400.0" font-family="Inter, 'Helvetica Neue', Arial, sans-serif" font-size="15.5" font-weight="600" fill="#EEF2F8" letter-spacing="0.1">Face Detection</text><text x="714.0" y="418.0" font-family="'JetBrains Mono', ui-monospace, 'SF Mono', Menlo, monospace" font-size="10.5" fill="#9AA6B8" letter-spacing="0.2">detector</text>
<g filter="url(#cardshadow)"><rect x="696.0" y="545.0" width="198.0" height="58.0" rx="13" fill="url(#g_percep)" stroke="#37CB8C" stroke-opacity="0.55" stroke-width="1.1"/></g><rect x="697.0" y="546.0" width="196.0" height="56.0" rx="12" fill="none" stroke="#FFFFFF" stroke-opacity="0.06" stroke-width="1"/><rect x="701.0" y="555.0" width="3.4" height="38.0" rx="1.7" fill="#37CB8C"/><text x="714.0" y="570.0" font-family="Inter, 'Helvetica Neue', Arial, sans-serif" font-size="15.5" font-weight="600" fill="#EEF2F8" letter-spacing="0.1">Face Tracking</text><text x="714.0" y="588.0" font-family="'JetBrains Mono', ui-monospace, 'SF Mono', Menlo, monospace" font-size="10.5" fill="#9AA6B8" letter-spacing="0.2">data association</text>
<g filter="url(#cardshadow)"><rect x="696.0" y="715.0" width="198.0" height="58.0" rx="13" fill="url(#g_percep)" stroke="#37CB8C" stroke-opacity="0.55" stroke-width="1.1"/></g><rect x="697.0" y="716.0" width="196.0" height="56.0" rx="12" fill="none" stroke="#FFFFFF" stroke-opacity="0.06" stroke-width="1"/><rect x="701.0" y="725.0" width="3.4" height="38.0" rx="1.7" fill="#37CB8C"/><text x="714.0" y="740.0" font-family="Inter, 'Helvetica Neue', Arial, sans-serif" font-size="15.5" font-weight="600" fill="#EEF2F8" letter-spacing="0.1">Target Estimation</text><text x="714.0" y="758.0" font-family="'JetBrains Mono', ui-monospace, 'SF Mono', Menlo, monospace" font-size="10.5" fill="#9AA6B8" letter-spacing="0.2">pose @ rate</text>
<g filter="url(#cardshadow)"><rect x="1003.0" y="205.0" width="198.0" height="58.0" rx="13" fill="url(#g_state)" stroke="#36C6CE" stroke-opacity="0.55" stroke-width="1.1"/></g><rect x="1004.0" y="206.0" width="196.0" height="56.0" rx="12" fill="none" stroke="#FFFFFF" stroke-opacity="0.06" stroke-width="1"/><rect x="1008.0" y="215.0" width="3.4" height="38.0" rx="1.7" fill="#36C6CE"/><text x="1021.0" y="230.0" font-family="Inter, 'Helvetica Neue', Arial, sans-serif" font-size="15.5" font-weight="600" fill="#EEF2F8" letter-spacing="0.1">World Model</text><text x="1021.0" y="248.0" font-family="'JetBrains Mono', ui-monospace, 'SF Mono', Menlo, monospace" font-size="10.5" fill="#9AA6B8" letter-spacing="0.2">state fusion</text>
<g filter="url(#cardshadow)"><rect x="1003.0" y="460.0" width="198.0" height="58.0" rx="13" fill="url(#g_behav)" stroke="#F2745F" stroke-opacity="0.55" stroke-width="1.1"/></g><rect x="1004.0" y="461.0" width="196.0" height="56.0" rx="12" fill="none" stroke="#FFFFFF" stroke-opacity="0.06" stroke-width="1"/><rect x="1008.0" y="470.0" width="3.4" height="38.0" rx="1.7" fill="#F2745F"/><text x="1021.0" y="485.0" font-family="Inter, 'Helvetica Neue', Arial, sans-serif" font-size="15.5" font-weight="600" fill="#EEF2F8" letter-spacing="0.1">Mission Manager</text><text x="1021.0" y="503.0" font-family="'JetBrains Mono', ui-monospace, 'SF Mono', Menlo, monospace" font-size="10.5" fill="#9AA6B8" letter-spacing="0.2">mode arbitration</text>
<g filter="url(#cardshadow)"><rect x="1003.0" y="715.0" width="198.0" height="58.0" rx="13" fill="url(#g_behav)" stroke="#F2745F" stroke-opacity="0.55" stroke-width="1.1"/></g><rect x="1004.0" y="716.0" width="196.0" height="56.0" rx="12" fill="none" stroke="#FFFFFF" stroke-opacity="0.06" stroke-width="1"/><rect x="1008.0" y="725.0" width="3.4" height="38.0" rx="1.7" fill="#F2745F"/><text x="1021.0" y="740.0" font-family="Inter, 'Helvetica Neue', Arial, sans-serif" font-size="15.5" font-weight="600" fill="#EEF2F8" letter-spacing="0.1">Follow Decision</text><text x="1021.0" y="758.0" font-family="'JetBrains Mono', ui-monospace, 'SF Mono', Menlo, monospace" font-size="10.5" fill="#9AA6B8" letter-spacing="0.2">engage logic</text>
<g filter="url(#cardshadow)"><rect x="1310.0" y="205.0" width="198.0" height="58.0" rx="13" fill="url(#g_ctrl)" stroke="#D277B9" stroke-opacity="0.55" stroke-width="1.1"/></g><rect x="1311.0" y="206.0" width="196.0" height="56.0" rx="12" fill="none" stroke="#FFFFFF" stroke-opacity="0.06" stroke-width="1"/><rect x="1315.0" y="215.0" width="3.4" height="38.0" rx="1.7" fill="#D277B9"/><text x="1328.0" y="230.0" font-family="Inter, 'Helvetica Neue', Arial, sans-serif" font-size="15.5" font-weight="600" fill="#EEF2F8" letter-spacing="0.1">Follow Controller</text><text x="1328.0" y="248.0" font-family="'JetBrains Mono', ui-monospace, 'SF Mono', Menlo, monospace" font-size="10.5" fill="#9AA6B8" letter-spacing="0.2">guidance law</text>
<g filter="url(#cardshadow)"><rect x="1310.0" y="375.0" width="198.0" height="58.0" rx="13" fill="url(#g_ctrl)" stroke="#D277B9" stroke-opacity="0.55" stroke-width="1.1"/></g><rect x="1311.0" y="376.0" width="196.0" height="56.0" rx="12" fill="none" stroke="#FFFFFF" stroke-opacity="0.06" stroke-width="1"/><rect x="1315.0" y="385.0" width="3.4" height="38.0" rx="1.7" fill="#D277B9"/><text x="1328.0" y="400.0" font-family="Inter, 'Helvetica Neue', Arial, sans-serif" font-size="15.5" font-weight="600" fill="#EEF2F8" letter-spacing="0.1">Setpoint Validation</text><text x="1328.0" y="418.0" font-family="'JetBrains Mono', ui-monospace, 'SF Mono', Menlo, monospace" font-size="10.5" fill="#9AA6B8" letter-spacing="0.2">limits / geofence</text>
<g filter="url(#cardshadow)"><rect x="1310.0" y="545.0" width="198.0" height="58.0" rx="13" fill="url(#g_ctrl)" stroke="#D277B9" stroke-opacity="0.55" stroke-width="1.1"/></g><rect x="1311.0" y="546.0" width="196.0" height="56.0" rx="12" fill="none" stroke="#FFFFFF" stroke-opacity="0.06" stroke-width="1"/><rect x="1315.0" y="555.0" width="3.4" height="38.0" rx="1.7" fill="#D277B9"/><text x="1328.0" y="570.0" font-family="Inter, 'Helvetica Neue', Arial, sans-serif" font-size="15.5" font-weight="600" fill="#EEF2F8" letter-spacing="0.1">Hold / Failsafe</text><text x="1328.0" y="588.0" font-family="'JetBrains Mono', ui-monospace, 'SF Mono', Menlo, monospace" font-size="10.5" fill="#9AA6B8" letter-spacing="0.2">safe hover / RTL</text>
<g filter="url(#cardshadow)"><rect x="1310.0" y="715.0" width="198.0" height="58.0" rx="13" fill="url(#g_ctrl)" stroke="#D277B9" stroke-opacity="0.55" stroke-width="1.1"/></g><rect x="1311.0" y="716.0" width="196.0" height="56.0" rx="12" fill="none" stroke="#FFFFFF" stroke-opacity="0.06" stroke-width="1"/><rect x="1315.0" y="725.0" width="3.4" height="38.0" rx="1.7" fill="#D277B9"/><text x="1328.0" y="740.0" font-family="Inter, 'Helvetica Neue', Arial, sans-serif" font-size="15.5" font-weight="600" fill="#EEF2F8" letter-spacing="0.1">Safety Supervision</text><text x="1328.0" y="758.0" font-family="'JetBrains Mono', ui-monospace, 'SF Mono', Menlo, monospace" font-size="10.5" fill="#9AA6B8" letter-spacing="0.2">watchdog / arbiter</text>
<g filter="url(#cardshadow)"><rect x="1617.0" y="205.0" width="198.0" height="58.0" rx="13" fill="url(#g_flight)" stroke="#E7BB42" stroke-opacity="0.55" stroke-width="1.1"/></g><rect x="1618.0" y="206.0" width="196.0" height="56.0" rx="12" fill="none" stroke="#FFFFFF" stroke-opacity="0.06" stroke-width="1"/><rect x="1622.0" y="215.0" width="3.4" height="38.0" rx="1.7" fill="#E7BB42"/><text x="1635.0" y="230.0" font-family="Inter, 'Helvetica Neue', Arial, sans-serif" font-size="15.5" font-weight="600" fill="#EEF2F8" letter-spacing="0.1">Stabilisation</text><text x="1635.0" y="248.0" font-family="'JetBrains Mono', ui-monospace, 'SF Mono', Menlo, monospace" font-size="10.5" fill="#9AA6B8" letter-spacing="0.2">attitude loop</text>
<g filter="url(#cardshadow)"><rect x="1617.0" y="460.0" width="198.0" height="58.0" rx="13" fill="url(#g_flight)" stroke="#E7BB42" stroke-opacity="0.55" stroke-width="1.1"/></g><rect x="1618.0" y="461.0" width="196.0" height="56.0" rx="12" fill="none" stroke="#FFFFFF" stroke-opacity="0.06" stroke-width="1"/><rect x="1622.0" y="470.0" width="3.4" height="38.0" rx="1.7" fill="#E7BB42"/><text x="1635.0" y="485.0" font-family="Inter, 'Helvetica Neue', Arial, sans-serif" font-size="15.5" font-weight="600" fill="#EEF2F8" letter-spacing="0.1">Hover</text><text x="1635.0" y="503.0" font-family="'JetBrains Mono', ui-monospace, 'SF Mono', Menlo, monospace" font-size="10.5" fill="#9AA6B8" letter-spacing="0.2">position hold</text>
<g filter="url(#cardshadow)"><rect x="1617.0" y="715.0" width="198.0" height="58.0" rx="13" fill="url(#g_flight)" stroke="#E7BB42" stroke-opacity="0.55" stroke-width="1.1"/></g><rect x="1618.0" y="716.0" width="196.0" height="56.0" rx="12" fill="none" stroke="#FFFFFF" stroke-opacity="0.06" stroke-width="1"/><rect x="1622.0" y="725.0" width="3.4" height="38.0" rx="1.7" fill="#E7BB42"/><text x="1635.0" y="740.0" font-family="Inter, 'Helvetica Neue', Arial, sans-serif" font-size="15.5" font-weight="600" fill="#EEF2F8" letter-spacing="0.1">Low-Level Control</text><text x="1635.0" y="758.0" font-family="'JetBrains Mono', ui-monospace, 'SF Mono', Menlo, monospace" font-size="10.5" fill="#9AA6B8" letter-spacing="0.2">rate / mixer</text>
<path d="M 280.0 234.0 L 389.0 234.0" fill="none" stroke="#9AA7BC" stroke-width="1.6" stroke-opacity="0.92" stroke-linecap="round" stroke-linejoin="round" marker-end="url(#ar)"/>
<path d="M 587.0 234.0 L 696.0 234.0" fill="none" stroke="#9AA7BC" stroke-width="1.6" stroke-opacity="0.92" stroke-linecap="round" stroke-linejoin="round" marker-end="url(#ar)"/>
<path d="M 795.0 263.0 L 795.0 375.0" fill="none" stroke="#9AA7BC" stroke-width="1.6" stroke-opacity="0.92" stroke-linecap="round" stroke-linejoin="round" marker-end="url(#ar)"/>
<path d="M 795.0 433.0 L 795.0 545.0" fill="none" stroke="#9AA7BC" stroke-width="1.6" stroke-opacity="0.92" stroke-linecap="round" stroke-linejoin="round" marker-end="url(#ar)"/>
<path d="M 795.0 603.0 L 795.0 715.0" fill="none" stroke="#9AA7BC" stroke-width="1.6" stroke-opacity="0.92" stroke-linecap="round" stroke-linejoin="round" marker-end="url(#ar)"/>
<path d="M 894.0 744.0 L 934.5 744.0 Q 948.5 744.0 948.5 730.0 L 948.5 248.0 Q 948.5 234.0 962.5 234.0 L 1003.0 234.0" fill="none" stroke="#9AA7BC" stroke-width="1.6" stroke-opacity="0.92" stroke-linecap="round" stroke-linejoin="round" marker-end="url(#ar)"/>
<path d="M 1102.0 263.0 L 1102.0 460.0" fill="none" stroke="#9AA7BC" stroke-width="1.6" stroke-opacity="0.92" stroke-linecap="round" stroke-linejoin="round" marker-end="url(#ar)"/>
<path d="M 1102.0 518.0 L 1102.0 715.0" fill="none" stroke="#9AA7BC" stroke-width="1.6" stroke-opacity="0.92" stroke-linecap="round" stroke-linejoin="round" marker-end="url(#ar)"/>
<path d="M 1201.0 223.6 L 1310.0 224.7" fill="none" stroke="#9AA7BC" stroke-width="1.6" stroke-opacity="0.92" stroke-linecap="round" stroke-linejoin="round" marker-end="url(#ar)"/>
<path d="M 1201.0 744.0 L 1258.0 744.0 Q 1272.0 744.0 1272.0 730.0 L 1272.0 257.3 Q 1272.0 243.3 1286.0 243.3 L 1310.0 243.3" fill="none" stroke="#9AA7BC" stroke-width="1.6" stroke-opacity="0.92" stroke-linecap="round" stroke-linejoin="round" marker-end="url(#ar)"/>
<path d="M 1201.0 245.6 L 1241.0 245.6 Q 1255.0 245.6 1255.0 259.6 L 1255.0 724.2 Q 1255.0 738.2 1269.0 738.2 L 1310.0 738.2" fill="none" stroke="#9AA7BC" stroke-width="1.6" stroke-opacity="0.92" stroke-linecap="round" stroke-linejoin="round" marker-end="url(#ar)"/>
<path d="M 1409.0 263.0 L 1409.0 375.0" fill="none" stroke="#9AA7BC" stroke-width="1.6" stroke-opacity="0.92" stroke-linecap="round" stroke-linejoin="round" marker-end="url(#ar)"/>
<path d="M 1508.0 404.0 L 1519.0 404.0 Q 1530.0 404.0 1530.0 415.0 L 1530.0 727.2 Q 1530.0 738.2 1519.0 738.2 L 1508.0 738.2" fill="none" stroke="#9AA7BC" stroke-width="1.6" stroke-opacity="0.92" stroke-linecap="round" stroke-linejoin="round" marker-end="url(#ar)"/>
<path d="M 1409.0 715.0 L 1409.0 603.0" fill="none" stroke="#9AA7BC" stroke-width="1.6" stroke-opacity="0.92" stroke-linecap="round" stroke-linejoin="round" marker-end="url(#ar)"/>
<path d="M 1389.2 773.0 L 1389.2 834.0 Q 1389.2 848.0 1375.2 848.0 L 470.3 848.0 Q 456.3 848.0 456.3 834.0 L 456.3 773.0" fill="none" stroke="#9AA7BC" stroke-width="1.6" stroke-opacity="0.92" stroke-linecap="round" stroke-linejoin="round" marker-end="url(#ar)"/>
<path d="M 507.8 773.0 L 507.8 856.0 Q 507.8 870.0 521.8 870.0 L 1725.8 870.0 Q 1739.8 870.0 1739.8 856.0 L 1739.8 773.0" fill="none" stroke="#9AA7BC" stroke-width="1.6" stroke-opacity="0.92" stroke-linecap="round" stroke-linejoin="round" marker-end="url(#ar)"/>
<path d="M 1692.2 773.0 L 1692.2 878.0 Q 1692.2 892.0 1678.2 892.0 L 565.4 892.0 Q 551.4 892.0 551.4 878.0 L 551.4 773.0" fill="none" stroke="#6E7B90" stroke-width="1.5" stroke-opacity="0.92" stroke-linecap="round" stroke-linejoin="round" marker-end="url(#ar_hw)"/>
<path d="M 1310.0 574.0 L 1252.0 574.0 Q 1238.0 574.0 1238.0 588.0 L 1238.0 812.0 Q 1238.0 826.0 1224.0 826.0 L 502.0 826.0 Q 488.0 826.0 488.0 812.0 L 488.0 773.0" fill="none" stroke="#E8A24C" stroke-width="1.7" stroke-opacity="0.92" stroke-linecap="round" stroke-linejoin="round" stroke-dasharray="7 5" marker-end="url(#ar_safe)"/>
<path d="M 280.0 489.0 L 320.5 489.0 Q 334.5 489.0 334.5 503.0 L 334.5 719.6 Q 334.5 733.6 348.5 733.6 L 389.0 733.6" fill="none" stroke="#6E7B90" stroke-width="1.5" stroke-opacity="0.92" stroke-linecap="round" stroke-linejoin="round" marker-end="url(#ar_hw)"/>
<path d="M 280.0 744.0 L 331.0 744.0 Q 334.5 744.0 334.5 747.5 L 334.5 747.5 Q 334.5 751.0 338.0 751.0 L 389.0 751.0" fill="none" stroke="#6E7B90" stroke-width="1.5" stroke-opacity="0.92" stroke-linecap="round" stroke-linejoin="round" marker-end="url(#ar_hw)"/>
<path d="M 1508.0 574.0 L 1548.5 574.0 Q 1562.5 574.0 1562.5 560.0 L 1562.5 503.0 Q 1562.5 489.0 1576.5 489.0 L 1617.0 489.0" fill="none" stroke="#E8A24C" stroke-width="1.7" stroke-opacity="0.92" stroke-linecap="round" stroke-linejoin="round" stroke-dasharray="7 5" marker-end="url(#ar_safe)"/>
<path d="M 1716.0 263.0 L 1716.0 460.0" fill="none" stroke="#6E7B90" stroke-width="1.3" stroke-opacity="0.55" stroke-linecap="round" stroke-linejoin="round"/>
<path d="M 1716.0 518.0 L 1716.0 715.0" fill="none" stroke="#6E7B90" stroke-width="1.3" stroke-opacity="0.55" stroke-linecap="round" stroke-linejoin="round"/>
<path d="M 1815.0 744.0 L 1845.0 744.0" fill="none" stroke="#9AA7BC" stroke-width="1.6" stroke-opacity="0.92" stroke-linecap="round" stroke-linejoin="round" marker-end="url(#ar)"/>
<text x="1852.0" y="748.0" font-family="'JetBrains Mono', ui-monospace, 'SF Mono', Menlo, monospace" font-size="9.5" font-weight="400" fill="#5E6B7E" text-anchor="start" letter-spacing="0" opacity="1">motors</text>
<line x1="56" y1="952" x2="90" y2="952" stroke="#9AA7BC" stroke-width="2.2" stroke-linecap="round"/>
<path d="M 90 948.6 L 97 952 L 90 955.4 Z" fill="#9AA7BC"/>
<text x="106.0" y="956.0" font-family="Inter, 'Helvetica Neue', Arial, sans-serif" font-size="11.5" font-weight="400" fill="#9AA6B8" text-anchor="start" letter-spacing="0" opacity="1">Primary data / command</text>
<line x1="311" y1="952" x2="345" y2="952" stroke="#E8A24C" stroke-width="2.2" stroke-dasharray="6 4" stroke-linecap="round"/>
<path d="M 345 948.6 L 352 952 L 345 955.4 Z" fill="#E8A24C"/>
<text x="361.0" y="956.0" font-family="Inter, 'Helvetica Neue', Arial, sans-serif" font-size="11.5" font-weight="400" fill="#9AA6B8" text-anchor="start" letter-spacing="0" opacity="1">Safety override / fallback</text>
<line x1="571" y1="952" x2="605" y2="952" stroke="#6E7B90" stroke-width="2.2" stroke-linecap="round"/>
<path d="M 605 948.6 L 612 952 L 605 955.4 Z" fill="#6E7B90"/>
<text x="621.0" y="956.0" font-family="Inter, 'Helvetica Neue', Arial, sans-serif" font-size="11.5" font-weight="400" fill="#9AA6B8" text-anchor="start" letter-spacing="0" opacity="1">Sensor / telemetry</text>
<line x1="783" y1="940" x2="783" y2="962" stroke="rgba(255,255,255,0.12)"/>
<circle cx="801" cy="952" r="5" fill="#5B9CFF"/>
<text x="812.0" y="956.0" font-family="Inter, 'Helvetica Neue', Arial, sans-serif" font-size="11" font-weight="400" fill="#9AA6B8" text-anchor="start" letter-spacing="0" opacity="1">Sensors</text>
<circle cx="871.655" cy="952" r="5" fill="#E8A24C"/>
<text x="882.7" y="956.0" font-family="Inter, 'Helvetica Neue', Arial, sans-serif" font-size="11" font-weight="400" fill="#9AA6B8" text-anchor="start" letter-spacing="0" opacity="1">Vehicle I/O</text>
<circle cx="964.97" cy="952" r="5" fill="#37CB8C"/>
<text x="976.0" y="956.0" font-family="Inter, 'Helvetica Neue', Arial, sans-serif" font-size="11" font-weight="400" fill="#9AA6B8" text-anchor="start" letter-spacing="0" opacity="1">Perception</text>
<circle cx="1052.6200000000001" cy="952" r="5" fill="#36C6CE"/>
<text x="1063.6" y="956.0" font-family="Inter, 'Helvetica Neue', Arial, sans-serif" font-size="11" font-weight="400" fill="#9AA6B8" text-anchor="start" letter-spacing="0" opacity="1">State</text>
<circle cx="1111.9450000000002" cy="952" r="5" fill="#F2745F"/>
<text x="1122.9" y="956.0" font-family="Inter, 'Helvetica Neue', Arial, sans-serif" font-size="11" font-weight="400" fill="#9AA6B8" text-anchor="start" letter-spacing="0" opacity="1">Behaviour</text>
<circle cx="1193.93" cy="952" r="5" fill="#D277B9"/>
<text x="1204.9" y="956.0" font-family="Inter, 'Helvetica Neue', Arial, sans-serif" font-size="11" font-weight="400" fill="#9AA6B8" text-anchor="start" letter-spacing="0" opacity="1">Control / Safety</text>
<circle cx="1315.5700000000002" cy="952" r="5" fill="#E7BB42"/>
<text x="1326.6" y="956.0" font-family="Inter, 'Helvetica Neue', Arial, sans-serif" font-size="11" font-weight="400" fill="#9AA6B8" text-anchor="start" letter-spacing="0" opacity="1">Flight</text>
</svg>