<svg xmlns="http://www.w3.org/2000/svg" width="2080" height="1100" viewBox="0 0 2080 1100" font-family="Inter, 'Helvetica Neue', Arial, sans-serif">
<defs>
  <linearGradient id="g_hw" x1="0" y1="0" x2="0.65" y2="1"><stop offset="0" stop-color="#16263F"/><stop offset="1" stop-color="#0E1A2C"/></linearGradient><linearGradient id="g_iface" x1="0" y1="0" x2="0.65" y2="1"><stop offset="0" stop-color="#352712"/><stop offset="1" stop-color="#22190A"/></linearGradient><linearGradient id="g_percep" x1="0" y1="0" x2="0.65" y2="1"><stop offset="0" stop-color="#103627"/><stop offset="1" stop-color="#0A2418"/></linearGradient><linearGradient id="g_state" x1="0" y1="0" x2="0.65" y2="1"><stop offset="0" stop-color="#0E3437"/><stop offset="1" stop-color="#0A2527"/></linearGradient><linearGradient id="g_behav" x1="0" y1="0" x2="0.65" y2="1"><stop offset="0" stop-color="#3C1B18"/><stop offset="1" stop-color="#2A1310"/></linearGradient><linearGradient id="g_ctrl" x1="0" y1="0" x2="0.65" y2="1"><stop offset="0" stop-color="#311639"/><stop offset="1" stop-color="#23102A"/></linearGradient><linearGradient id="g_flight" x1="0" y1="0" x2="0.65" y2="1"><stop offset="0" stop-color="#332810"/><stop offset="1" stop-color="#241B0A"/></linearGradient>
  <marker id="ar" viewBox="0 0 10 10" refX="8.5" refY="5" markerWidth="7.5" markerHeight="7.5" orient="auto-start-reverse"><path d="M 0 0.7 L 9 5 L 0 9.3 L 2.6 5 Z" fill="#9AA7BC"/></marker><marker id="ar_hw" viewBox="0 0 10 10" refX="8.5" refY="5" markerWidth="7.5" markerHeight="7.5" orient="auto-start-reverse"><path d="M 0 0.7 L 9 5 L 0 9.3 L 2.6 5 Z" fill="#6E7B90"/></marker><marker id="ar_safe" viewBox="0 0 10 10" refX="8.5" refY="5" markerWidth="7.5" markerHeight="7.5" orient="auto-start-reverse"><path d="M 0 0.7 L 9 5 L 0 9.3 L 2.6 5 Z" fill="#E8A24C"/></marker>
  <radialGradient id="vign" cx="0.5" cy="0.36" r="0.95">
    <stop offset="0" stop-color="#10151F"/>
    <stop offset="0.55" stop-color="#0B0E15"/>
    <stop offset="1" stop-color="#080A0F"/>
  </radialGradient>
  <pattern id="grid" width="34" height="34" patternUnits="userSpaceOnUse">
    <circle cx="1" cy="1" r="1" fill="rgba(150,180,230,0.035)"/>
  </pattern>
  <filter id="cardshadow" x="-30%" y="-30%" width="160%" height="170%">
    <feDropShadow dx="0" dy="6" stdDeviation="9" flood-color="#000000" flood-opacity="0.45"/>
  </filter>
</defs>
<rect width="2080" height="1100" fill="url(#vign)"/>
<rect width="2080" height="1100" fill="url(#grid)"/>
<rect x="56" y="26" width="62.2" height="19" rx="5" fill="#0E1219" stroke="rgba(255,255,255,0.12)"/>
<text x="65.0" y="39.5" font-family="'JetBrains Mono', ui-monospace, 'SF Mono', Menlo, monospace" font-size="10.5" font-weight="500" fill="#8FB7FF" text-anchor="start" letter-spacing="0.5" opacity="1">FIG. 02</text>
<text x="2024.0" y="39.5" font-family="'JetBrains Mono', ui-monospace, 'SF Mono', Menlo, monospace" font-size="11" font-weight="400" fill="#5E6B7E" text-anchor="end" letter-spacing="0.3" opacity="1">ROS 2  •  Node / Topic Graph</text>
<text x="56.0" y="74.0" font-family="Inter, 'Helvetica Neue', Arial, sans-serif" font-size="27" font-weight="700" fill="#EEF2F8" text-anchor="start" letter-spacing="-0.2" opacity="1">UAV Vision-Follow System</text>
<text x="56.0" y="97.0" font-family="Inter, 'Helvetica Neue', Arial, sans-serif" font-size="13.5" font-weight="400" fill="#9AA6B8" text-anchor="start" letter-spacing="0" opacity="1">ROS 2 computation graph  ·  nodes, topics and message flow</text>
<line x1="56" y1="114" x2="2024" y2="114" stroke="rgba(255,255,255,0.07)" stroke-width="1"/>
<rect x="56.0" y="150.0" width="190.0" height="716.0" rx="17" fill="rgba(255,255,255,0.018)" stroke="rgba(255,255,255,0.07)" stroke-width="1"/><rect x="56.0" y="150.0" width="190.0" height="3" rx="1.5" fill="#5B9CFF" opacity="0.5"/><rect x="72.0" y="136.0" width="95.6" height="27" rx="8" fill="#0E1219" stroke="#5B9CFF" stroke-opacity="0.42" stroke-width="1"/><circle cx="87.0" cy="149.5" r="3.6" fill="#5B9CFF"/><text x="98.0" y="153.5" font-family="Inter, 'Helvetica Neue', Arial, sans-serif" font-size="11.5" font-weight="600" fill="#EEF2F8" letter-spacing="1.3">EXTERNAL</text>
<rect x="360.0" y="150.0" width="224.0" height="716.0" rx="17" fill="rgba(255,255,255,0.018)" stroke="rgba(255,255,255,0.07)" stroke-width="1"/><rect x="360.0" y="150.0" width="224.0" height="3" rx="1.5" fill="#37CB8C" opacity="0.5"/><rect x="376.0" y="136.0" width="110.5" height="27" rx="8" fill="#0E1219" stroke="#37CB8C" stroke-opacity="0.42" stroke-width="1"/><circle cx="391.0" cy="149.5" r="3.6" fill="#37CB8C"/><text x="402.0" y="153.5" font-family="Inter, 'Helvetica Neue', Arial, sans-serif" font-size="11.5" font-weight="600" fill="#EEF2F8" letter-spacing="1.3">PERCEPTION</text>
<rect x="772.0" y="150.0" width="224.0" height="716.0" rx="17" fill="rgba(255,255,255,0.018)" stroke="rgba(255,255,255,0.07)" stroke-width="1"/><rect x="772.0" y="150.0" width="224.0" height="3" rx="1.5" fill="#E8A24C" opacity="0.5"/><rect x="788.0" y="136.0" width="177.6" height="27" rx="8" fill="#0E1219" stroke="#E8A24C" stroke-opacity="0.42" stroke-width="1"/><circle cx="803.0" cy="149.5" r="3.6" fill="#E8A24C"/><text x="814.0" y="153.5" font-family="Inter, 'Helvetica Neue', Arial, sans-serif" font-size="11.5" font-weight="600" fill="#EEF2F8" letter-spacing="1.3">STATE / VEHICLE I/O</text>
<rect x="1184.0" y="150.0" width="224.0" height="716.0" rx="17" fill="rgba(255,255,255,0.018)" stroke="rgba(255,255,255,0.07)" stroke-width="1"/><rect x="1184.0" y="150.0" width="224.0" height="3" rx="1.5" fill="#F2745F" opacity="0.5"/><rect x="1200.0" y="136.0" width="95.6" height="27" rx="8" fill="#0E1219" stroke="#F2745F" stroke-opacity="0.42" stroke-width="1"/><circle cx="1215.0" cy="149.5" r="3.6" fill="#F2745F"/><text x="1226.0" y="153.5" font-family="Inter, 'Helvetica Neue', Arial, sans-serif" font-size="11.5" font-weight="600" fill="#EEF2F8" letter-spacing="1.3">BEHAVIOR</text>
<rect x="1596.0" y="150.0" width="224.0" height="716.0" rx="17" fill="rgba(255,255,255,0.018)" stroke="rgba(255,255,255,0.07)" stroke-width="1"/><rect x="1596.0" y="150.0" width="224.0" height="3" rx="1.5" fill="#D277B9" opacity="0.5"/><rect x="1612.0" y="136.0" width="155.2" height="27" rx="8" fill="#0E1219" stroke="#D277B9" stroke-opacity="0.42" stroke-width="1"/><circle cx="1627.0" cy="149.5" r="3.6" fill="#D277B9"/><text x="1638.0" y="153.5" font-family="Inter, 'Helvetica Neue', Arial, sans-serif" font-size="11.5" font-weight="600" fill="#EEF2F8" letter-spacing="1.3">CONTROL / SAFETY</text>
<g filter="url(#cardshadow)"><rect x="71.0" y="248.0" width="160.0" height="52.0" rx="13" fill="url(#g_hw)" stroke="#5B9CFF" stroke-opacity="0.55" stroke-width="1.1"/></g><rect x="72.0" y="249.0" width="158.0" height="50.0" rx="12" fill="none" stroke="#FFFFFF" stroke-opacity="0.06" stroke-width="1"/><rect x="76.0" y="258.0" width="3.4" height="32.0" rx="1.7" fill="#5B9CFF"/><text x="89.0" y="274.5" font-family="'JetBrains Mono', ui-monospace, 'SF Mono', Menlo, monospace" font-size="11.5" font-weight="600" fill="#EEF2F8" dominant-baseline="middle" letter-spacing="0.1">pi_camera</text>
<g filter="url(#cardshadow)"><rect x="65.0" y="560.0" width="172.0" height="52.0" rx="13" fill="url(#g_hw)" stroke="#5B9CFF" stroke-opacity="0.55" stroke-width="1.1"/></g><rect x="66.0" y="561.0" width="170.0" height="50.0" rx="12" fill="none" stroke="#FFFFFF" stroke-opacity="0.06" stroke-width="1"/><rect x="70.0" y="570.0" width="3.4" height="32.0" rx="1.7" fill="#5B9CFF"/><text x="83.0" y="586.5" font-family="'JetBrains Mono', ui-monospace, 'SF Mono', Menlo, monospace" font-size="11.5" font-weight="600" fill="#EEF2F8" dominant-baseline="middle" letter-spacing="0.1">flight_controller</text>
<g filter="url(#cardshadow)"><rect x="370.0" y="196.0" width="204.0" height="52.0" rx="13" fill="url(#g_percep)" stroke="#37CB8C" stroke-opacity="0.55" stroke-width="1.1"/></g><rect x="371.0" y="197.0" width="202.0" height="50.0" rx="12" fill="none" stroke="#FFFFFF" stroke-opacity="0.06" stroke-width="1"/><rect x="375.0" y="206.0" width="3.4" height="32.0" rx="1.7" fill="#37CB8C"/><text x="388.0" y="222.5" font-family="'JetBrains Mono', ui-monospace, 'SF Mono', Menlo, monospace" font-size="11.5" font-weight="600" fill="#EEF2F8" dominant-baseline="middle" letter-spacing="0.1">camera_driver_node</text>
<g filter="url(#cardshadow)"><rect x="370.0" y="330.0" width="204.0" height="52.0" rx="13" fill="url(#g_percep)" stroke="#37CB8C" stroke-opacity="0.55" stroke-width="1.1"/></g><rect x="371.0" y="331.0" width="202.0" height="50.0" rx="12" fill="none" stroke="#FFFFFF" stroke-opacity="0.06" stroke-width="1"/><rect x="375.0" y="340.0" width="3.4" height="32.0" rx="1.7" fill="#37CB8C"/><text x="388.0" y="356.5" font-family="'JetBrains Mono', ui-monospace, 'SF Mono', Menlo, monospace" font-size="11.5" font-weight="600" fill="#EEF2F8" dominant-baseline="middle" letter-spacing="0.1">image_preprocessing_node</text>
<g filter="url(#cardshadow)"><rect x="370.0" y="464.0" width="204.0" height="52.0" rx="13" fill="url(#g_percep)" stroke="#37CB8C" stroke-opacity="0.55" stroke-width="1.1"/></g><rect x="371.0" y="465.0" width="202.0" height="50.0" rx="12" fill="none" stroke="#FFFFFF" stroke-opacity="0.06" stroke-width="1"/><rect x="375.0" y="474.0" width="3.4" height="32.0" rx="1.7" fill="#37CB8C"/><text x="388.0" y="490.5" font-family="'JetBrains Mono', ui-monospace, 'SF Mono', Menlo, monospace" font-size="11.5" font-weight="600" fill="#EEF2F8" dominant-baseline="middle" letter-spacing="0.1">face_detector_node</text>
<g filter="url(#cardshadow)"><rect x="370.0" y="598.0" width="204.0" height="52.0" rx="13" fill="url(#g_percep)" stroke="#37CB8C" stroke-opacity="0.55" stroke-width="1.1"/></g><rect x="371.0" y="599.0" width="202.0" height="50.0" rx="12" fill="none" stroke="#FFFFFF" stroke-opacity="0.06" stroke-width="1"/><rect x="375.0" y="608.0" width="3.4" height="32.0" rx="1.7" fill="#37CB8C"/><text x="388.0" y="624.5" font-family="'JetBrains Mono', ui-monospace, 'SF Mono', Menlo, monospace" font-size="11.5" font-weight="600" fill="#EEF2F8" dominant-baseline="middle" letter-spacing="0.1">face_tracker_node</text>
<g filter="url(#cardshadow)"><rect x="370.0" y="732.0" width="204.0" height="52.0" rx="13" fill="url(#g_percep)" stroke="#37CB8C" stroke-opacity="0.55" stroke-width="1.1"/></g><rect x="371.0" y="733.0" width="202.0" height="50.0" rx="12" fill="none" stroke="#FFFFFF" stroke-opacity="0.06" stroke-width="1"/><rect x="375.0" y="742.0" width="3.4" height="32.0" rx="1.7" fill="#37CB8C"/><text x="388.0" y="758.5" font-family="'JetBrains Mono', ui-monospace, 'SF Mono', Menlo, monospace" font-size="11.5" font-weight="600" fill="#EEF2F8" dominant-baseline="middle" letter-spacing="0.1">target_estimator_node</text>
<g filter="url(#cardshadow)"><rect x="782.0" y="410.0" width="204.0" height="52.0" rx="13" fill="url(#g_state)" stroke="#36C6CE" stroke-opacity="0.55" stroke-width="1.1"/></g><rect x="783.0" y="411.0" width="202.0" height="50.0" rx="12" fill="none" stroke="#FFFFFF" stroke-opacity="0.06" stroke-width="1"/><rect x="787.0" y="420.0" width="3.4" height="32.0" rx="1.7" fill="#36C6CE"/><text x="800.0" y="436.5" font-family="'JetBrains Mono', ui-monospace, 'SF Mono', Menlo, monospace" font-size="11.5" font-weight="600" fill="#EEF2F8" dominant-baseline="middle" letter-spacing="0.1">world_model_node</text>
<g filter="url(#cardshadow)"><rect x="782.0" y="664.0" width="204.0" height="52.0" rx="13" fill="url(#g_iface)" stroke="#E8A24C" stroke-opacity="0.55" stroke-width="1.1"/></g><rect x="783.0" y="665.0" width="202.0" height="50.0" rx="12" fill="none" stroke="#FFFFFF" stroke-opacity="0.06" stroke-width="1"/><rect x="787.0" y="674.0" width="3.4" height="32.0" rx="1.7" fill="#E8A24C"/><text x="800.0" y="690.5" font-family="'JetBrains Mono', ui-monospace, 'SF Mono', Menlo, monospace" font-size="11.5" font-weight="600" fill="#EEF2F8" dominant-baseline="middle" letter-spacing="0.1">fcu_bridge_node</text>
<g filter="url(#cardshadow)"><rect x="1194.0" y="300.0" width="204.0" height="52.0" rx="13" fill="url(#g_behav)" stroke="#F2745F" stroke-opacity="0.55" stroke-width="1.1"/></g><rect x="1195.0" y="301.0" width="202.0" height="50.0" rx="12" fill="none" stroke="#FFFFFF" stroke-opacity="0.06" stroke-width="1"/><rect x="1199.0" y="310.0" width="3.4" height="32.0" rx="1.7" fill="#F2745F"/><text x="1212.0" y="326.5" font-family="'JetBrains Mono', ui-monospace, 'SF Mono', Menlo, monospace" font-size="11.5" font-weight="600" fill="#EEF2F8" dominant-baseline="middle" letter-spacing="0.1">mission_manager_node</text>
<g filter="url(#cardshadow)"><rect x="1606.0" y="196.0" width="204.0" height="52.0" rx="13" fill="url(#g_ctrl)" stroke="#D277B9" stroke-opacity="0.55" stroke-width="1.1"/></g><rect x="1607.0" y="197.0" width="202.0" height="50.0" rx="12" fill="none" stroke="#FFFFFF" stroke-opacity="0.06" stroke-width="1"/><rect x="1611.0" y="206.0" width="3.4" height="32.0" rx="1.7" fill="#D277B9"/><text x="1624.0" y="222.5" font-family="'JetBrains Mono', ui-monospace, 'SF Mono', Menlo, monospace" font-size="11.5" font-weight="600" fill="#EEF2F8" dominant-baseline="middle" letter-spacing="0.1">follow_controller_node</text>
<g filter="url(#cardshadow)"><rect x="1606.0" y="374.0" width="204.0" height="52.0" rx="13" fill="url(#g_ctrl)" stroke="#D277B9" stroke-opacity="0.55" stroke-width="1.1"/></g><rect x="1607.0" y="375.0" width="202.0" height="50.0" rx="12" fill="none" stroke="#FFFFFF" stroke-opacity="0.06" stroke-width="1"/><rect x="1611.0" y="384.0" width="3.4" height="32.0" rx="1.7" fill="#D277B9"/><text x="1624.0" y="400.5" font-family="'JetBrains Mono', ui-monospace, 'SF Mono', Menlo, monospace" font-size="11.5" font-weight="600" fill="#EEF2F8" dominant-baseline="middle" letter-spacing="0.1">setpoint_validation_node</text>
<g filter="url(#cardshadow)"><rect x="1606.0" y="552.0" width="204.0" height="52.0" rx="13" fill="url(#g_ctrl)" stroke="#D277B9" stroke-opacity="0.55" stroke-width="1.1"/></g><rect x="1607.0" y="553.0" width="202.0" height="50.0" rx="12" fill="none" stroke="#FFFFFF" stroke-opacity="0.06" stroke-width="1"/><rect x="1611.0" y="562.0" width="3.4" height="32.0" rx="1.7" fill="#D277B9"/><text x="1624.0" y="578.5" font-family="'JetBrains Mono', ui-monospace, 'SF Mono', Menlo, monospace" font-size="11.5" font-weight="600" fill="#EEF2F8" dominant-baseline="middle" letter-spacing="0.1">safety_supervision_node</text>
<g filter="url(#cardshadow)"><rect x="1606.0" y="730.0" width="204.0" height="52.0" rx="13" fill="url(#g_ctrl)" stroke="#D277B9" stroke-opacity="0.55" stroke-width="1.1"/></g><rect x="1607.0" y="731.0" width="202.0" height="50.0" rx="12" fill="none" stroke="#FFFFFF" stroke-opacity="0.06" stroke-width="1"/><rect x="1611.0" y="740.0" width="3.4" height="32.0" rx="1.7" fill="#D277B9"/><text x="1624.0" y="756.5" font-family="'JetBrains Mono', ui-monospace, 'SF Mono', Menlo, monospace" font-size="11.5" font-weight="600" fill="#EEF2F8" dominant-baseline="middle" letter-spacing="0.1">hold_failsafe_node</text>
<path d="M 231.0 274.0 L 291.0 274.0 Q 303.0 274.0 303.0 262.0 L 303.0 234.0 Q 303.0 222.0 315.0 222.0 L 370.0 222.0" fill="none" stroke="#6E7B90" stroke-width="1.5" stroke-opacity="0.92" stroke-linecap="round" stroke-linejoin="round" marker-end="url(#ar_hw)"/>
<text x="303.0" y="208.0" font-family="'JetBrains Mono', ui-monospace, 'SF Mono', Menlo, monospace" font-size="9.5" font-weight="400" fill="#5E6B7E" text-anchor="middle" letter-spacing="0" opacity="1">v4l2 / CSI-2</text>
<path d="M 237.0 578.2 L 291.0 578.2 Q 303.0 578.2 303.0 590.2 L 303.0 670.2 Q 303.0 682.2 315.0 682.2 L 782.0 682.2" fill="none" stroke="#6E7B90" stroke-width="1.5" stroke-opacity="0.92" stroke-linecap="round" stroke-linejoin="round" marker-end="url(#ar_hw)"/>
<path d="M 782.0 700.4 L 293.0 700.4 Q 281.0 700.4 281.0 688.4 L 281.0 609.4 Q 281.0 597.4 269.0 597.4 L 237.0 597.4" fill="none" stroke="#6E7B90" stroke-width="1.5" stroke-opacity="0.92" stroke-linecap="round" stroke-linejoin="round" marker-end="url(#ar_hw)"/>
<text x="292.0" y="566.2" font-family="'JetBrains Mono', ui-monospace, 'SF Mono', Menlo, monospace" font-size="9.5" font-weight="400" fill="#5E6B7E" text-anchor="middle" letter-spacing="0" opacity="1">MAVLink</text>
<path d="M 472.0 248.0 L 472.0 330.0" fill="none" stroke="#9AA7BC" stroke-width="1.6" stroke-opacity="0.92" stroke-linecap="round" stroke-linejoin="round" marker-end="url(#ar)"/>
<path d="M 472.0 382.0 L 472.0 464.0" fill="none" stroke="#9AA7BC" stroke-width="1.6" stroke-opacity="0.92" stroke-linecap="round" stroke-linejoin="round" marker-end="url(#ar)"/>
<path d="M 472.0 516.0 L 472.0 598.0" fill="none" stroke="#9AA7BC" stroke-width="1.6" stroke-opacity="0.92" stroke-linecap="round" stroke-linejoin="round" marker-end="url(#ar)"/>
<path d="M 472.0 650.0 L 472.0 732.0" fill="none" stroke="#9AA7BC" stroke-width="1.6" stroke-opacity="0.92" stroke-linecap="round" stroke-linejoin="round" marker-end="url(#ar)"/>
<path d="M 574.0 758.0 L 666.0 758.0 Q 678.0 758.0 678.0 746.0 L 678.0 448.0 Q 678.0 436.0 690.0 436.0 L 782.0 436.0" fill="none" stroke="#9AA7BC" stroke-width="1.6" stroke-opacity="0.92" stroke-linecap="round" stroke-linejoin="round" marker-end="url(#ar)"/>
<path d="M 904.4 664.0 L 907.2 664.0 Q 910.0 664.0 910.0 661.2 L 910.0 464.8 Q 910.0 462.0 907.2 462.0 L 904.4 462.0" fill="none" stroke="#9AA7BC" stroke-width="1.6" stroke-opacity="0.92" stroke-linecap="round" stroke-linejoin="round" marker-end="url(#ar)"/>
<path d="M 986.0 436.0 L 1078.0 436.0 Q 1090.0 436.0 1090.0 424.0 L 1090.0 338.0 Q 1090.0 326.0 1102.0 326.0 L 1194.0 326.0" fill="none" stroke="#9AA7BC" stroke-width="1.6" stroke-opacity="0.92" stroke-linecap="round" stroke-linejoin="round" marker-end="url(#ar)"/>
<path d="M 986.0 443.8 L 1040.0 443.8 Q 1052.0 443.8 1052.0 455.8 L 1052.0 474.0 Q 1052.0 486.0 1064.0 486.0 L 1530.0 486.0 Q 1542.0 486.0 1542.0 474.0 L 1542.0 244.4 Q 1542.0 232.4 1554.0 232.4 L 1606.0 232.4" fill="none" stroke="#9AA7BC" stroke-width="1.6" stroke-opacity="0.92" stroke-linecap="round" stroke-linejoin="round" marker-end="url(#ar)"/>
<path d="M 1398.0 326.0 L 1490.0 326.0 Q 1502.0 326.0 1502.0 314.0 L 1502.0 224.6 Q 1502.0 212.6 1514.0 212.6 L 1606.0 212.6" fill="none" stroke="#9AA7BC" stroke-width="1.6" stroke-opacity="0.92" stroke-linecap="round" stroke-linejoin="round" marker-end="url(#ar)"/>
<path d="M 1296.0 352.0 L 1296.0 500.0 Q 1296.0 512.0 1308.0 512.0 L 1444.0 512.0 Q 1456.0 512.0 1456.0 524.0 L 1456.0 558.2 Q 1456.0 570.2 1468.0 570.2 L 1606.0 570.2" fill="none" stroke="#9AA7BC" stroke-width="1.6" stroke-opacity="0.92" stroke-linecap="round" stroke-linejoin="round" marker-end="url(#ar)"/>
<path d="M 1708.0 248.0 L 1708.0 374.0" fill="none" stroke="#9AA7BC" stroke-width="1.6" stroke-opacity="0.92" stroke-linecap="round" stroke-linejoin="round" marker-end="url(#ar)"/>
<path d="M 1708.0 426.0 L 1708.0 552.0" fill="none" stroke="#9AA7BC" stroke-width="1.6" stroke-opacity="0.92" stroke-linecap="round" stroke-linejoin="round" marker-end="url(#ar)"/>
<path d="M 1708.0 604.0 L 1708.0 730.0" fill="none" stroke="#9AA7BC" stroke-width="1.6" stroke-opacity="0.92" stroke-linecap="round" stroke-linejoin="round" marker-end="url(#ar)"/>
<path d="M 1128.0 375.0 L 1128.0 900.0 Q 1128.0 912.0 1140.0 912.0 L 1478.0 912.0 Q 1490.0 912.0 1490.0 900.0 L 1490.0 605.6 Q 1490.0 593.6 1502.0 593.6 L 1606.0 593.6" fill="none" stroke="#9AA7BC" stroke-width="1.6" stroke-opacity="0.92" stroke-linecap="round" stroke-linejoin="round" marker-end="url(#ar)"/>
<path d="M 986.0 679.6 L 1150.0 679.6 Q 1162.0 679.6 1162.0 691.6 L 1162.0 928.0 Q 1162.0 940.0 1174.0 940.0 L 1524.0 940.0 Q 1536.0 940.0 1536.0 928.0 L 1536.0 596.2 Q 1536.0 584.2 1548.0 584.2 L 1606.0 584.2" fill="none" stroke="#9AA7BC" stroke-width="1.6" stroke-opacity="0.92" stroke-linecap="round" stroke-linejoin="round" marker-end="url(#ar)"/>
<path d="M 1810.0 400.0 L 1844.0 400.0 Q 1856.0 400.0 1856.0 412.0 L 1856.0 956.0 Q 1856.0 968.0 1844.0 968.0 L 920.5 968.0 Q 908.5 968.0 908.5 956.0 L 908.5 716.0" fill="none" stroke="#9AA7BC" stroke-width="1.6" stroke-opacity="0.92" stroke-linecap="round" stroke-linejoin="round" marker-end="url(#ar)"/>
<path d="M 1708.0 782.0 L 1708.0 984.0 Q 1708.0 996.0 1696.0 996.0 L 871.5 996.0 Q 859.5 996.0 859.5 984.0 L 859.5 716.0" fill="none" stroke="#E8A24C" stroke-width="1.7" stroke-opacity="0.92" stroke-linecap="round" stroke-linejoin="round" stroke-dasharray="7 5" marker-end="url(#ar_safe)"/>
<line x1="56" y1="1052" x2="90" y2="1052" stroke="#9AA7BC" stroke-width="2.2" stroke-linecap="round"/>
<path d="M 90 1048.6 L 97 1052 L 90 1055.4 Z" fill="#9AA7BC"/>
<text x="106.0" y="1056.0" font-family="Inter, 'Helvetica Neue', Arial, sans-serif" font-size="11.5" font-weight="400" fill="#9AA6B8" text-anchor="start" letter-spacing="0" opacity="1">ROS topic (pub → sub)</text>
<line x1="306" y1="1052" x2="340" y2="1052" stroke="#6E7B90" stroke-width="2.2" stroke-linecap="round"/>
<path d="M 340 1048.6 L 347 1052 L 340 1055.4 Z" fill="#6E7B90"/>
<text x="356.0" y="1056.0" font-family="Inter, 'Helvetica Neue', Arial, sans-serif" font-size="11.5" font-weight="400" fill="#9AA6B8" text-anchor="start" letter-spacing="0" opacity="1">Hardware / MAVLink link</text>
<line x1="566" y1="1052" x2="600" y2="1052" stroke="#E8A24C" stroke-width="2.2" stroke-dasharray="6 4" stroke-linecap="round"/>
<path d="M 600 1048.6 L 607 1052 L 600 1055.4 Z" fill="#E8A24C"/>
<text x="616.0" y="1056.0" font-family="Inter, 'Helvetica Neue', Arial, sans-serif" font-size="11.5" font-weight="400" fill="#9AA6B8" text-anchor="start" letter-spacing="0" opacity="1">Safety fallback path</text>
<line x1="806" y1="1040" x2="806" y2="1062" stroke="rgba(255,255,255,0.12)"/>
<text x="826.0" y="1056.0" font-family="'JetBrains Mono', ui-monospace, 'SF Mono', Menlo, monospace" font-size="10.5" font-weight="400" fill="#5E6B7E" text-anchor="start" letter-spacing="0" opacity="1">namespace</text>
<circle cx="912" cy="1052" r="4.4" fill="#5B9CFF"/>
<text x="922.0" y="1056.0" font-family="'JetBrains Mono', ui-monospace, 'SF Mono', Menlo, monospace" font-size="11" font-weight="400" fill="#9AA6B8" text-anchor="start" letter-spacing="0" opacity="1">/camera</text>
<circle cx="990.354" cy="1052" r="4.4" fill="#37CB8C"/>
<text x="1000.4" y="1056.0" font-family="'JetBrains Mono', ui-monospace, 'SF Mono', Menlo, monospace" font-size="11" font-weight="400" fill="#9AA6B8" text-anchor="start" letter-spacing="0" opacity="1">/target</text>
<circle cx="1068.708" cy="1052" r="4.4" fill="#36C6CE"/>
<text x="1078.7" y="1056.0" font-family="'JetBrains Mono', ui-monospace, 'SF Mono', Menlo, monospace" font-size="11" font-weight="400" fill="#9AA6B8" text-anchor="start" letter-spacing="0" opacity="1">/world</text>
<circle cx="1140.44" cy="1052" r="4.4" fill="#F2745F"/>
<text x="1150.4" y="1056.0" font-family="'JetBrains Mono', ui-monospace, 'SF Mono', Menlo, monospace" font-size="11" font-weight="400" fill="#9AA6B8" text-anchor="start" letter-spacing="0" opacity="1">/mission</text>
<circle cx="1225.4160000000002" cy="1052" r="4.4" fill="#D277B9"/>
<text x="1235.4" y="1056.0" font-family="'JetBrains Mono', ui-monospace, 'SF Mono', Menlo, monospace" font-size="11" font-weight="400" fill="#9AA6B8" text-anchor="start" letter-spacing="0" opacity="1">/control</text>
<circle cx="1310.3920000000003" cy="1052" r="4.4" fill="#E8A24C"/>
<text x="1320.4" y="1056.0" font-family="'JetBrains Mono', ui-monospace, 'SF Mono', Menlo, monospace" font-size="11" font-weight="400" fill="#9AA6B8" text-anchor="start" letter-spacing="0" opacity="1">/vehicle</text>
<g><rect x="401.7" y="279.0" width="140.6" height="20" rx="6" fill="#0C0F16" stroke="rgba(255,255,255,0.10)" stroke-width="1"/><circle cx="410.7" cy="289.0" r="2.6" fill="#5B9CFF"/><text x="478.0" y="293.0" font-family="'JetBrains Mono', ui-monospace, 'SF Mono', Menlo, monospace" font-size="11" fill="#EEF2F8" text-anchor="middle" letter-spacing="0.1">/camera/image_raw</text></g>
<g><rect x="371.9" y="413.0" width="200.2" height="20" rx="6" fill="#0C0F16" stroke="rgba(255,255,255,0.10)" stroke-width="1"/><circle cx="380.9" cy="423.0" r="2.6" fill="#5B9CFF"/><text x="478.0" y="427.0" font-family="'JetBrains Mono', ui-monospace, 'SF Mono', Menlo, monospace" font-size="11" fill="#EEF2F8" text-anchor="middle" letter-spacing="0.1">/camera/image_preprocessed</text></g>
<g><rect x="398.4" y="547.0" width="147.2" height="20" rx="6" fill="#0C0F16" stroke="rgba(255,255,255,0.10)" stroke-width="1"/><circle cx="407.4" cy="557.0" r="2.6" fill="#37CB8C"/><text x="478.0" y="561.0" font-family="'JetBrains Mono', ui-monospace, 'SF Mono', Menlo, monospace" font-size="11" fill="#EEF2F8" text-anchor="middle" letter-spacing="0.1">/target/detections</text></g>
<g><rect x="415.0" y="681.0" width="114.1" height="20" rx="6" fill="#0C0F16" stroke="rgba(255,255,255,0.10)" stroke-width="1"/><circle cx="424.0" cy="691.0" r="2.6" fill="#37CB8C"/><text x="478.0" y="695.0" font-family="'JetBrains Mono', ui-monospace, 'SF Mono', Menlo, monospace" font-size="11" fill="#EEF2F8" text-anchor="middle" letter-spacing="0.1">/target/track</text></g>
<g><rect x="621.0" y="587.0" width="114.1" height="20" rx="6" fill="#0C0F16" stroke="rgba(255,255,255,0.10)" stroke-width="1"/><circle cx="630.0" cy="597.0" r="2.6" fill="#37CB8C"/><text x="684.0" y="601.0" font-family="'JetBrains Mono', ui-monospace, 'SF Mono', Menlo, monospace" font-size="11" fill="#EEF2F8" text-anchor="middle" letter-spacing="0.1">/target/state</text></g>
<g><rect x="853.0" y="553.0" width="114.1" height="20" rx="6" fill="#0C0F16" stroke="rgba(255,255,255,0.10)" stroke-width="1"/><circle cx="862.0" cy="563.0" r="2.6" fill="#E8A24C"/><text x="916.0" y="567.0" font-family="'JetBrains Mono', ui-monospace, 'SF Mono', Menlo, monospace" font-size="11" fill="#EEF2F8" text-anchor="middle" letter-spacing="0.1">/vehicle/odom</text></g>
<g><rect x="1013.1" y="365.0" width="153.8" height="20" rx="6" fill="#0C0F16" stroke="rgba(255,255,255,0.10)" stroke-width="1"/><circle cx="1022.1" cy="375.0" r="2.6" fill="#36C6CE"/><text x="1096.0" y="379.0" font-family="'JetBrains Mono', ui-monospace, 'SF Mono', Menlo, monospace" font-size="11" fill="#EEF2F8" text-anchor="middle" letter-spacing="0.1">/world/target_valid</text></g>
<g><rect x="1196.6" y="476.0" width="206.8" height="20" rx="6" fill="#0C0F16" stroke="rgba(255,255,255,0.10)" stroke-width="1"/><circle cx="1205.6" cy="486.0" r="2.6" fill="#36C6CE"/><text x="1306.0" y="490.0" font-family="'JetBrains Mono', ui-monospace, 'SF Mono', Menlo, monospace" font-size="11" fill="#EEF2F8" text-anchor="middle" letter-spacing="0.1">/world/target_pose_relative</text></g>
<g><rect x="1411.8" y="259.3" width="180.3" height="20" rx="6" fill="#0C0F16" stroke="rgba(255,255,255,0.10)" stroke-width="1"/><circle cx="1420.8" cy="269.3" r="2.6" fill="#F2745F"/><text x="1508.0" y="273.3" font-family="'JetBrains Mono', ui-monospace, 'SF Mono', Menlo, monospace" font-size="11" fill="#EEF2F8" text-anchor="middle" letter-spacing="0.1">/mission/follow_enabled</text></g>
<g><rect x="1269.6" y="502.0" width="120.7" height="20" rx="6" fill="#0C0F16" stroke="rgba(255,255,255,0.10)" stroke-width="1"/><circle cx="1278.6" cy="512.0" r="2.6" fill="#F2745F"/><text x="1336.0" y="516.0" font-family="'JetBrains Mono', ui-monospace, 'SF Mono', Menlo, monospace" font-size="11" fill="#EEF2F8" text-anchor="middle" letter-spacing="0.1">/mission/state</text></g>
<g><rect x="1624.5" y="301.0" width="167.1" height="20" rx="6" fill="#0C0F16" stroke="rgba(255,255,255,0.10)" stroke-width="1"/><circle cx="1633.5" cy="311.0" r="2.6" fill="#D277B9"/><text x="1714.0" y="315.0" font-family="'JetBrains Mono', ui-monospace, 'SF Mono', Menlo, monospace" font-size="11" fill="#EEF2F8" text-anchor="middle" letter-spacing="0.1">/control/setpoint_raw</text></g>
<g><rect x="1604.6" y="479.0" width="206.8" height="20" rx="6" fill="#0C0F16" stroke="rgba(255,255,255,0.10)" stroke-width="1"/><circle cx="1613.6" cy="489.0" r="2.6" fill="#D277B9"/><text x="1714.0" y="493.0" font-family="'JetBrains Mono', ui-monospace, 'SF Mono', Menlo, monospace" font-size="11" fill="#EEF2F8" text-anchor="middle" letter-spacing="0.1">/control/setpoint_validated</text></g>
<g><rect x="1637.7" y="657.0" width="140.6" height="20" rx="6" fill="#0C0F16" stroke="rgba(255,255,255,0.10)" stroke-width="1"/><circle cx="1646.7" cy="667.0" r="2.6" fill="#D277B9"/><text x="1714.0" y="671.0" font-family="'JetBrains Mono', ui-monospace, 'SF Mono', Menlo, monospace" font-size="11" fill="#EEF2F8" text-anchor="middle" letter-spacing="0.1">/control/hold_cmd</text></g>
<g><rect x="1269.1" y="902.0" width="153.8" height="20" rx="6" fill="#0C0F16" stroke="rgba(255,255,255,0.10)" stroke-width="1"/><circle cx="1278.1" cy="912.0" r="2.6" fill="#36C6CE"/><text x="1352.0" y="916.0" font-family="'JetBrains Mono', ui-monospace, 'SF Mono', Menlo, monospace" font-size="11" fill="#EEF2F8" text-anchor="middle" letter-spacing="0.1">/world/target_valid</text></g>
<g><rect x="1076.3" y="669.6" width="127.3" height="20" rx="6" fill="#0C0F16" stroke="rgba(255,255,255,0.10)" stroke-width="1"/><circle cx="1085.3" cy="679.6" r="2.6" fill="#E8A24C"/><text x="1146.0" y="683.6" font-family="'JetBrains Mono', ui-monospace, 'SF Mono', Menlo, monospace" font-size="11" fill="#EEF2F8" text-anchor="middle" letter-spacing="0.1">/vehicle/status</text></g>
<g><rect x="1216.6" y="958.0" width="206.8" height="20" rx="6" fill="#0C0F16" stroke="rgba(255,255,255,0.10)" stroke-width="1"/><circle cx="1225.6" cy="968.0" r="2.6" fill="#D277B9"/><text x="1326.0" y="972.0" font-family="'JetBrains Mono', ui-monospace, 'SF Mono', Menlo, monospace" font-size="11" fill="#EEF2F8" text-anchor="middle" letter-spacing="0.1">/control/setpoint_validated</text></g>
<g><rect x="1223.2" y="986.0" width="173.7" height="20" rx="6" fill="#0C0F16" stroke="rgba(255,255,255,0.10)" stroke-width="1"/><circle cx="1232.2" cy="996.0" r="2.6" fill="#D277B9"/><text x="1316.0" y="1000.0" font-family="'JetBrains Mono', ui-monospace, 'SF Mono', Menlo, monospace" font-size="11" fill="#EEF2F8" text-anchor="middle" letter-spacing="0.1">/control/setpoint_safe</text></g>
</svg>